<?xml version="1.0" standalone="no"?>
<!DOCTYPE svg PUBLIC "-//W3C//DTD SVG 20010904//EN"
 "http://www.w3.org/TR/2001/REC-SVG-20010904/DTD/svg10.dtd">
<svg version="1.0" xmlns="http://www.w3.org/2000/svg"
 width="1024.000000pt" height="1024.000000pt" viewBox="0 0 1024.000000 1024.000000"
 preserveAspectRatio="xMidYMid meet">

<g transform="translate(0.000000,1024.000000) scale(0.100000,-0.100000)"
fill="#000000" stroke="none">
<path d="M4119 9250 c-302 -35 -623 -174 -874 -380 -87 -71 -251 -237 -345
-350 -183 -220 -302 -448 -368 -708 -25 -100 -27 -121 -27 -322 0 -185 3 -228
22 -306 68 -287 210 -532 434 -750 269 -261 607 -430 1094 -549 301 -73 452
-100 937 -170 503 -71 822 -143 958 -216 43 -23 137 -113 425 -410 208 -213
374 -392 378 -407 31 -97 80 -142 155 -142 27 0 57 8 76 20 48 29 259 257 275
295 30 74 -24 170 -103 181 -38 6 -67 32 -409 373 -203 201 -384 387 -403 412
-76 103 -106 230 -214 902 -92 575 -136 812 -190 1033 -117 474 -282 781 -570
1057 -232 223 -506 366 -810 422 -103 19 -337 27 -441 15z m69 -510 c70 -43
78 -136 18 -196 -56 -56 -131 -57 -185 -3 -109 109 34 280 167 199z m582 -85
c16 -9 36 -29 45 -45 52 -100 -44 -215 -151 -180 -130 43 -102 240 34 240 24
0 56 -7 72 -15z m-977 -259 c92 -38 111 -157 36 -220 -86 -73 -219 -12 -219
101 0 43 32 96 71 115 41 22 69 23 112 4z m673 -80 c29 -29 34 -41 34 -82 0
-116 -110 -182 -201 -121 -69 46 -76 142 -14 204 30 30 39 33 90 33 51 0 60
-3 91 -34z m653 -11 c65 -55 63 -145 -4 -204 -30 -26 -44 -31 -86 -31 -44 0
-55 4 -84 33 -89 89 -31 227 96 227 36 0 55 -6 78 -25z m-1667 -276 c27 -14
58 -69 58 -102 0 -77 -60 -137 -138 -137 -94 0 -154 115 -102 198 35 57 118
75 182 41z m646 -19 c19 -12 40 -37 49 -57 56 -134 -116 -246 -214 -139 -28
30 -33 43 -33 85 0 78 51 129 130 130 19 1 50 -8 68 -19z m673 -31 c59 -41 64
-138 11 -191 -97 -97 -255 -4 -213 125 28 85 129 117 202 66z m619 -22 c34
-17 70 -74 70 -109 0 -82 -63 -142 -143 -135 -68 6 -108 46 -114 114 -8 80 48
143 127 143 19 0 46 -6 60 -13z m-2313 -268 c95 -36 119 -159 42 -223 -43 -36
-88 -42 -141 -18 -99 43 -103 183 -8 234 40 21 67 23 107 7z m683 -17 c67 -49
75 -139 16 -198 -109 -109 -276 12 -210 152 33 69 130 92 194 46z m650 -31
c38 -27 51 -60 47 -114 -3 -38 -11 -56 -35 -79 -23 -24 -41 -32 -79 -35 -58
-5 -89 10 -120 56 -78 115 71 252 187 172z m641 -16 c36 -19 69 -70 69 -108 0
-87 -102 -159 -180 -127 -52 22 -80 64 -80 122 0 45 4 54 39 89 32 33 45 39
80 39 23 0 55 -7 72 -15z m-1649 -303 c52 -30 72 -106 43 -162 -24 -46 -62
-70 -112 -70 -82 0 -133 48 -133 125 0 107 105 163 202 107z m672 -24 c84 -84
30 -219 -88 -222 -54 -1 -93 24 -120 78 -24 50 -15 99 29 143 30 30 39 33 90
33 51 0 60 -3 89 -32z m611 -2 c90 -38 97 -173 11 -228 -47 -29 -118 -20 -158
20 -43 42 -50 112 -16 162 40 59 95 74 163 46z m684 -32 c88 -73 43 -218 -72
-231 -136 -16 -200 150 -91 236 40 32 123 29 163 -5z m-1661 -302 c54 -35 67
-116 29 -173 -31 -46 -62 -61 -120 -56 -82 7 -129 75 -108 155 24 86 124 123
199 74z m620 -3 c65 -22 92 -121 52 -186 -83 -136 -283 -32 -224 117 28 69 95
96 172 69z m651 -15 c137 -55 80 -258 -67 -241 -95 10 -142 112 -92 195 20 32
67 61 102 62 10 0 35 -7 57 -16z m827 -244 c14 -28 85 -409 113 -605 22 -147
18 -166 -37 -198 -33 -20 -34 -20 -150 3 -64 12 -233 43 -375 69 -169 31 -262
53 -268 62 -24 38 -10 57 114 155 152 122 309 274 440 427 85 100 104 118 126
115 16 -2 30 -13 37 -28z m-1819 -85 c42 -12 73 -62 73 -116 0 -42 -5 -55 -33
-85 -79 -86 -217 -35 -217 81 0 65 35 112 93 125 32 8 43 7 84 -5z m638 -19
c68 -29 95 -118 55 -183 -24 -41 -67 -63 -121 -63 -35 0 -47 6 -81 40 -39 39
-40 42 -36 95 9 102 88 150 183 111z"/>
<path d="M6666 8654 c-294 -71 -506 -347 -506 -658 0 -50 7 -120 15 -155 41
-173 183 -351 345 -429 124 -61 190 -75 329 -70 130 5 218 29 317 90 120 73
231 200 274 315 19 51 19 57 5 77 -125 170 -165 299 -165 545 l-1 126 -50 39
c-71 54 -171 103 -250 121 -83 19 -234 18 -313 -1z m-180 -337 c112 -83 202
-203 245 -327 16 -46 23 -97 27 -177 5 -129 -12 -223 -58 -321 -32 -67 -44
-73 -109 -51 -24 9 -31 16 -26 28 99 239 94 432 -14 597 -47 72 -89 113 -178
173 -83 57 -88 78 -23 103 64 24 71 23 136 -25z"/>
<path d="M7411 8269 c-1 -64 29 -190 58 -246 l20 -38 0 50 c1 68 -23 176 -53
238 l-24 52 -1 -56z"/>
<path d="M1965 4458 c-3 -7 -4 -326 -3 -708 l3 -695 175 0 175 0 3 228 2 227
168 0 c184 0 267 13 354 54 146 69 239 213 254 393 12 145 -31 268 -128 366
-71 71 -152 111 -272 132 -117 20 -724 22 -731 3z m688 -322 c68 -33 99 -105
83 -191 -9 -45 -66 -110 -109 -124 -18 -6 -94 -12 -170 -14 l-137 -2 0 178 0
179 148 -4 c118 -3 154 -7 185 -22z"/>
<path d="M3552 4458 c-5 -7 -23 -51 -40 -98 -17 -47 -74 -202 -127 -345 -254
-684 -346 -939 -341 -951 4 -11 42 -14 180 -14 l174 0 16 43 c9 23 28 78 44
122 l29 80 274 3 274 2 44 -125 c24 -69 48 -125 55 -125 168 -5 339 -1 347 7
7 7 -41 149 -149 444 -88 239 -201 549 -253 689 -51 140 -97 261 -102 268 -7
9 -62 12 -212 12 -150 0 -205 -3 -213 -12z m307 -642 c44 -126 81 -231 81
-233 0 -1 -81 -3 -181 -3 -168 0 -181 1 -174 18 4 9 43 118 86 242 44 124 83
232 86 240 4 11 8 8 13 -10 4 -14 44 -128 89 -254z"/>
<path d="M4667 4463 c-11 -11 -8 -1411 3 -1415 5 -1 168 0 362 3 348 5 354 6
443 33 262 80 422 259 471 526 57 316 -62 613 -300 749 -160 92 -276 111 -671
111 -166 0 -305 -3 -308 -7z m613 -323 c127 -24 234 -102 283 -207 19 -42 22
-65 22 -178 0 -150 -13 -191 -87 -271 -79 -86 -193 -124 -375 -124 l-103 0 0
395 0 395 104 0 c57 0 127 -4 156 -10z"/>
<path d="M6177 4463 c-11 -11 -8 -1398 3 -1409 10 -10 930 -9 958 1 10 4 12
39 10 152 l-3 148 -307 3 -308 2 0 128 0 129 261 -1 c143 -1 265 1 270 5 6 3
8 65 7 145 l-3 139 -267 3 -268 2 0 120 0 120 298 2 297 3 0 155 0 155 -471 3
c-259 1 -474 -1 -477 -5z"/>
<path d="M7405 4458 c-3 -7 -4 -326 -3 -708 l3 -695 460 0 460 0 0 155 0 155
-282 3 -283 2 -2 548 -3 547 -173 3 c-132 2 -174 0 -177 -10z"/>
<path d="M3108 2700 c-231 -42 -421 -184 -514 -384 -54 -118 -68 -191 -68
-351 1 -239 54 -375 204 -526 69 -70 101 -94 170 -127 109 -53 200 -74 325
-75 116 -1 192 13 289 54 139 59 243 154 306 280 24 46 27 60 17 72 -12 15
-260 127 -281 127 -6 0 -24 -23 -41 -51 -68 -115 -162 -164 -298 -157 -102 6
-165 35 -230 108 -64 71 -89 141 -95 264 -7 154 25 258 105 347 96 106 274
133 406 61 52 -28 82 -61 116 -129 12 -24 27 -43 34 -43 8 0 76 26 153 58 116
48 140 61 142 80 6 37 -51 143 -110 207 -113 122 -265 184 -463 190 -66 2
-141 0 -167 -5z"/>
<path d="M4045 2668 c-3 -7 -4 -326 -3 -708 l3 -695 455 0 455 0 0 155 0 155
-277 3 -278 2 -2 548 -3 547 -173 3 c-132 2 -174 0 -177 -10z"/>
<path d="M5110 2659 c-8 -14 -10 -160 -8 -497 l4 -477 26 -77 c62 -187 195
-306 394 -354 47 -12 109 -17 194 -16 209 1 350 51 465 167 72 72 109 137 135
241 19 72 20 112 20 550 0 421 -2 473 -16 478 -9 3 -82 6 -164 6 -108 0 -150
-3 -158 -13 -7 -8 -12 -163 -14 -462 -3 -449 -3 -450 -27 -502 -31 -70 -86
-118 -157 -139 -143 -41 -277 18 -324 143 -19 51 -20 78 -20 494 0 284 -4 447
-10 460 -10 18 -23 19 -170 19 -151 0 -160 -1 -170 -21z"/>
<path d="M6585 2668 c-3 -7 -4 -326 -3 -708 l3 -695 368 -3 c300 -2 380 1 433
13 141 33 245 109 300 220 26 55 29 69 29 165 0 94 -3 110 -27 155 -32 62 -77
105 -145 143 l-53 28 45 32 c95 67 142 172 132 297 -13 180 -124 310 -297 349
-91 21 -778 24 -785 4z m616 -288 c42 -8 61 -18 88 -46 31 -34 33 -39 29 -95
-8 -107 -49 -129 -243 -129 l-135 0 0 140 0 140 104 0 c57 0 128 -4 157 -10z
m77 -569 c98 -50 96 -197 -2 -242 -34 -15 -67 -19 -188 -19 l-148 0 0 146 0
147 148 -5 c126 -4 153 -8 190 -27z"/>
</g>
</svg>
